<?xml version="1.0" encoding="us-ascii" standalone="no"?><svg xmlns="http://www.w3.org/2000/svg" xmlns:xlink="http://www.w3.org/1999/xlink" contentStyleType="text/css" height="202px" preserveAspectRatio="none" style="width:1052px;height:202px;background:#FFFFFF;" version="1.1" viewBox="0 0 1052 202" width="1052px" zoomAndPan="magnify"><defs/><g><!--class Appointment--><g id="elem_Appointment"><rect codeLine="3" fill="#F1F1F1" height="48" id="Appointment" rx="2.5" ry="2.5" style="stroke:#181818;stroke-width:0.5;" width="130" x="7" y="83"/><ellipse cx="22" cy="99" fill="#ADD1B2" rx="11" ry="11" style="stroke:#181818;stroke-width:1.0;"/><path d="M24.3438,94.6719 C23.4063,94.2344 22.8125,94.0938 21.9375,94.0938 C19.3125,94.0938 17.3125,96.1719 17.3125,98.8906 L17.3125,100.0156 C17.3125,102.5938 19.4219,104.4844 22.3125,104.4844 C23.5313,104.4844 24.6875,104.1875 25.4375,103.6406 C26.0156,103.2344 26.3438,102.7813 26.3438,102.3906 C26.3438,101.9375 25.9531,101.5469 25.4844,101.5469 C25.2656,101.5469 25.0625,101.625 24.875,101.8125 C24.4219,102.2969 24.4219,102.2969 24.2344,102.3906 C23.8125,102.6563 23.125,102.7813 22.3594,102.7813 C20.3125,102.7813 19.0156,101.6875 19.0156,99.9844 L19.0156,98.8906 C19.0156,97.1094 20.2656,95.7969 22,95.7969 C22.5781,95.7969 23.1875,95.9531 23.6563,96.2031 C24.1406,96.4844 24.3125,96.7031 24.4063,97.1094 C24.4688,97.5156 24.5,97.6406 24.6406,97.7656 C24.7813,97.9063 25.0156,98.0156 25.2344,98.0156 C25.5,98.0156 25.7656,97.875 25.9375,97.6563 C26.0469,97.5 26.0781,97.3125 26.0781,96.8906 L26.0781,95.4688 C26.0781,95.0313 26.0625,94.9063 25.9688,94.75 C25.8125,94.4844 25.5313,94.3438 25.2344,94.3438 C24.9375,94.3438 24.7344,94.4375 24.5156,94.75 L24.3438,94.6719 Z " fill="#000000"/><text fill="#000000" font-family="sans-serif" font-size="14" lengthAdjust="spacing" textLength="98" x="36" y="103.8467">Appointment</text><line style="stroke:#181818;stroke-width:0.5;" x1="8" x2="136" y1="115" y2="115"/><line style="stroke:#181818;stroke-width:0.5;" x1="8" x2="136" y1="123" y2="123"/></g><!--class Dentist--><g id="elem_Dentist"><rect codeLine="5" fill="#F1F1F1" height="48" id="Dentist" rx="2.5" ry="2.5" style="stroke:#181818;stroke-width:0.5;" width="86" x="223" y="7"/><ellipse cx="238" cy="23" fill="#ADD1B2" rx="11" ry="11" style="stroke:#181818;stroke-width:1.0;"/><path d="M240.3438,18.6719 C239.4063,18.2344 238.8125,18.0938 237.9375,18.0938 C235.3125,18.0938 233.3125,20.1719 233.3125,22.8906 L233.3125,24.0156 C233.3125,26.5938 235.4219,28.4844 238.3125,28.4844 C239.5313,28.4844 240.6875,28.1875 241.4375,27.6406 C242.0156,27.2344 242.3438,26.7813 242.3438,26.3906 C242.3438,25.9375 241.9531,25.5469 241.4844,25.5469 C241.2656,25.5469 241.0625,25.625 240.875,25.8125 C240.4219,26.2969 240.4219,26.2969 240.2344,26.3906 C239.8125,26.6563 239.125,26.7813 238.3594,26.7813 C236.3125,26.7813 235.0156,25.6875 235.0156,23.9844 L235.0156,22.8906 C235.0156,21.1094 236.2656,19.7969 238,19.7969 C238.5781,19.7969 239.1875,19.9531 239.6563,20.2031 C240.1406,20.4844 240.3125,20.7031 240.4063,21.1094 C240.4688,21.5156 240.5,21.6406 240.6406,21.7656 C240.7813,21.9063 241.0156,22.0156 241.2344,22.0156 C241.5,22.0156 241.7656,21.875 241.9375,21.6563 C242.0469,21.5 242.0781,21.3125 242.0781,20.8906 L242.0781,19.4688 C242.0781,19.0313 242.0625,18.9063 241.9688,18.75 C241.8125,18.4844 241.5313,18.3438 241.2344,18.3438 C240.9375,18.3438 240.7344,18.4375 240.5156,18.75 L240.3438,18.6719 Z " fill="#000000"/><text fill="#000000" font-family="sans-serif" font-size="14" lengthAdjust="spacing" textLength="54" x="252" y="27.8467">Dentist</text><line style="stroke:#181818;stroke-width:0.5;" x1="224" x2="308" y1="39" y2="39"/><line style="stroke:#181818;stroke-width:0.5;" x1="224" x2="308" y1="47" y2="47"/></g><!--class Patient--><g id="elem_Patient"><rect codeLine="7" fill="#F1F1F1" height="48" id="Patient" rx="2.5" ry="2.5" style="stroke:#181818;stroke-width:0.5;" width="85" x="519" y="83"/><ellipse cx="534" cy="99" fill="#ADD1B2" rx="11" ry="11" style="stroke:#181818;stroke-width:1.0;"/><path d="M536.3438,94.6719 C535.4063,94.2344 534.8125,94.0938 533.9375,94.0938 C531.3125,94.0938 529.3125,96.1719 529.3125,98.8906 L529.3125,100.0156 C529.3125,102.5938 531.4219,104.4844 534.3125,104.4844 C535.5313,104.4844 536.6875,104.1875 537.4375,103.6406 C538.0156,103.2344 538.3438,102.7813 538.3438,102.3906 C538.3438,101.9375 537.9531,101.5469 537.4844,101.5469 C537.2656,101.5469 537.0625,101.625 536.875,101.8125 C536.4219,102.2969 536.4219,102.2969 536.2344,102.3906 C535.8125,102.6563 535.125,102.7813 534.3594,102.7813 C532.3125,102.7813 531.0156,101.6875 531.0156,99.9844 L531.0156,98.8906 C531.0156,97.1094 532.2656,95.7969 534,95.7969 C534.5781,95.7969 535.1875,95.9531 535.6563,96.2031 C536.1406,96.4844 536.3125,96.7031 536.4063,97.1094 C536.4688,97.5156 536.5,97.6406 536.6406,97.7656 C536.7813,97.9063 537.0156,98.0156 537.2344,98.0156 C537.5,98.0156 537.7656,97.875 537.9375,97.6563 C538.0469,97.5 538.0781,97.3125 538.0781,96.8906 L538.0781,95.4688 C538.0781,95.0313 538.0625,94.9063 537.9688,94.75 C537.8125,94.4844 537.5313,94.3438 537.2344,94.3438 C536.9375,94.3438 536.7344,94.4375 536.5156,94.75 L536.3438,94.6719 Z " fill="#000000"/><text fill="#000000" font-family="sans-serif" font-size="14" lengthAdjust="spacing" textLength="53" x="548" y="103.8467">Patient</text><line style="stroke:#181818;stroke-width:0.5;" x1="520" x2="603" y1="115" y2="115"/><line style="stroke:#181818;stroke-width:0.5;" x1="520" x2="603" y1="123" y2="123"/></g><!--class DentalRecord--><g id="elem_DentalRecord"><rect codeLine="9" fill="#F1F1F1" height="48" id="DentalRecord" rx="2.5" ry="2.5" style="stroke:#181818;stroke-width:0.5;" width="131" x="690" y="91"/><ellipse cx="705" cy="107" fill="#ADD1B2" rx="11" ry="11" style="stroke:#181818;stroke-width:1.0;"/><path d="M707.3438,102.6719 C706.4063,102.2344 705.8125,102.0938 704.9375,102.0938 C702.3125,102.0938 700.3125,104.1719 700.3125,106.8906 L700.3125,108.0156 C700.3125,110.5938 702.4219,112.4844 705.3125,112.4844 C706.5313,112.4844 707.6875,112.1875 708.4375,111.6406 C709.0156,111.2344 709.3438,110.7813 709.3438,110.3906 C709.3438,109.9375 708.9531,109.5469 708.4844,109.5469 C708.2656,109.5469 708.0625,109.625 707.875,109.8125 C707.4219,110.2969 707.4219,110.2969 707.2344,110.3906 C706.8125,110.6563 706.125,110.7813 705.3594,110.7813 C703.3125,110.7813 702.0156,109.6875 702.0156,107.9844 L702.0156,106.8906 C702.0156,105.1094 703.2656,103.7969 705,103.7969 C705.5781,103.7969 706.1875,103.9531 706.6563,104.2031 C707.1406,104.4844 707.3125,104.7031 707.4063,105.1094 C707.4688,105.5156 707.5,105.6406 707.6406,105.7656 C707.7813,105.9063 708.0156,106.0156 708.2344,106.0156 C708.5,106.0156 708.7656,105.875 708.9375,105.6563 C709.0469,105.5 709.0781,105.3125 709.0781,104.8906 L709.0781,103.4688 C709.0781,103.0313 709.0625,102.9063 708.9688,102.75 C708.8125,102.4844 708.5313,102.3438 708.2344,102.3438 C707.9375,102.3438 707.7344,102.4375 707.5156,102.75 L707.3438,102.6719 Z " fill="#000000"/><text fill="#000000" font-family="sans-serif" font-size="14" lengthAdjust="spacing" textLength="99" x="719" y="111.8467">DentalRecord</text><line style="stroke:#181818;stroke-width:0.5;" x1="691" x2="820" y1="123" y2="123"/><line style="stroke:#181818;stroke-width:0.5;" x1="691" x2="820" y1="131" y2="131"/></g><!--class Treatment--><g id="elem_Treatment"><rect codeLine="11" fill="#F1F1F1" height="48" id="Treatment" rx="2.5" ry="2.5" style="stroke:#181818;stroke-width:0.5;" width="110" x="935" y="137"/><ellipse cx="950" cy="153" fill="#ADD1B2" rx="11" ry="11" style="stroke:#181818;stroke-width:1.0;"/><path d="M952.3438,148.6719 C951.4063,148.2344 950.8125,148.0938 949.9375,148.0938 C947.3125,148.0938 945.3125,150.1719 945.3125,152.8906 L945.3125,154.0156 C945.3125,156.5938 947.4219,158.4844 950.3125,158.4844 C951.5313,158.4844 952.6875,158.1875 953.4375,157.6406 C954.0156,157.2344 954.3438,156.7813 954.3438,156.3906 C954.3438,155.9375 953.9531,155.5469 953.4844,155.5469 C953.2656,155.5469 953.0625,155.625 952.875,155.8125 C952.4219,156.2969 952.4219,156.2969 952.2344,156.3906 C951.8125,156.6563 951.125,156.7813 950.3594,156.7813 C948.3125,156.7813 947.0156,155.6875 947.0156,153.9844 L947.0156,152.8906 C947.0156,151.1094 948.2656,149.7969 950,149.7969 C950.5781,149.7969 951.1875,149.9531 951.6563,150.2031 C952.1406,150.4844 952.3125,150.7031 952.4063,151.1094 C952.4688,151.5156 952.5,151.6406 952.6406,151.7656 C952.7813,151.9063 953.0156,152.0156 953.2344,152.0156 C953.5,152.0156 953.7656,151.875 953.9375,151.6563 C954.0469,151.5 954.0781,151.3125 954.0781,150.8906 L954.0781,149.4688 C954.0781,149.0313 954.0625,148.9063 953.9688,148.75 C953.8125,148.4844 953.5313,148.3438 953.2344,148.3438 C952.9375,148.3438 952.7344,148.4375 952.5156,148.75 L952.3438,148.6719 Z " fill="#000000"/><text fill="#000000" font-family="sans-serif" font-size="14" lengthAdjust="spacing" textLength="78" x="964" y="157.8467">Treatment</text><line style="stroke:#181818;stroke-width:0.5;" x1="936" x2="1044" y1="169" y2="169"/><line style="stroke:#181818;stroke-width:0.5;" x1="936" x2="1044" y1="177" y2="177"/></g><!--reverse link Appointment to Patient--><g id="link_Appointment_Patient"><path codeLine="13" d="M150.495,107 C254.868,107 436.932,107 518.675,107 " fill="none" id="Appointment-backto-Patient" style="stroke:#181818;stroke-width:1.0;"/><polygon fill="none" points="137.233,107,143.233,111,149.233,107,143.233,103,137.233,107" style="stroke:#181818;stroke-width:1.0;"/><text fill="#000000" font-family="sans-serif" font-size="13" lengthAdjust="spacing" textLength="24" x="254" y="103.0669">Has</text></g><!--reverse link Appointment to Dentist--><g id="link_Appointment_Dentist"><path codeLine="14" d="M145.893,78.147 C171.901,67.852 200.314,56.605 222.865,47.679 " fill="none" id="Appointment-backto-Dentist" style="stroke:#181818;stroke-width:1.0;"/><polygon fill="none" points="133.75,82.953,140.801,84.464,144.9077,78.5366,137.8567,77.0255,133.75,82.953" style="stroke:#181818;stroke-width:1.0;"/><text fill="#000000" font-family="sans-serif" font-size="13" lengthAdjust="spacing" textLength="24" x="168" y="56.0669">Has</text></g><!--reverse link Appointment to Treatment--><g id="link_Appointment_Treatment"><path codeLine="15" d="M114.537,138.6457 C151.84,163.8744 209.173,195 265,195 C265,195 265,195 756.5,195 C818.099,195 887.921,183.1709 934.834,173.4673 " fill="none" id="Appointment-backto-Treatment" style="stroke:#181818;stroke-width:1.0;"/><polygon fill="none" points="103.6275,131.0464,106.2647,137.758,113.4743,137.9049,110.8371,131.1934,103.6275,131.0464" style="stroke:#181818;stroke-width:1.0;"/><text fill="#000000" font-family="sans-serif" font-size="13" lengthAdjust="spacing" textLength="53" x="535" y="191.0669">Involves</text></g><!--link Dentist to Patient--><g id="link_Dentist_Patient"><path codeLine="16" d="M309.141,38.83 C354.1,47.568 427.204,62.885 489,81 C498.76,83.861 509.117,87.353 518.829,90.838 " fill="none" id="Dentist-Patient" style="stroke:#181818;stroke-width:1.0;"/><text fill="#000000" font-family="sans-serif" font-size="13" lengthAdjust="spacing" textLength="148" x="340" y="42.0669">Performs treatment on</text></g><!--reverse link Patient to DentalRecord--><g id="link_Patient_DentalRecord"><path codeLine="17" d="M617.345,109.2852 C639.962,110.2276 666.338,111.3266 689.884,112.3077 " fill="none" id="Patient-backto-DentalRecord" style="stroke:#181818;stroke-width:1.0;"/><polygon fill="none" points="604.161,108.7359,609.9892,112.9823,616.1506,109.2357,610.3224,104.9893,604.161,108.7359" style="stroke:#181818;stroke-width:1.0;"/><text fill="#000000" font-family="sans-serif" font-size="13" lengthAdjust="spacing" textLength="24" x="635" y="107.0669">Has</text></g><!--reverse link DentalRecord to Treatment--><g id="link_DentalRecord_Treatment"><path codeLine="18" d="M834.136,130.3601 C867.152,136.8925 904.857,144.3524 934.796,150.2758 " fill="none" id="DentalRecord-backto-Treatment" style="stroke:#181818;stroke-width:1.0;"/><polygon fill="none" points="821.264,127.8136,826.3737,132.9019,833.0359,130.1424,827.9262,125.054,821.264,127.8136" style="stroke:#181818;stroke-width:1.0;"/><text fill="#000000" font-family="sans-serif" font-size="13" lengthAdjust="spacing" textLength="52" x="852" y="130.0669">Records</text></g><!--SRC=[ROvB2iCm34JtFeKka0jaL-YYtONI2nX7QGIE5IIHyxSGvFowr1lcZJ8E1iOWz1aDUX9CHbmWX9IZAjpccQdOXCKgk_yEqktkej4vZ_c5YQMly2qONRENSjDKGGkFg9VKv_wdcxU5PrauBwZ1AmTtXpAmJ0fMAro2vxvK7r_d3kYyjsBz0W00]--></g></svg>