<?xml version="1.0" encoding="us-ascii" standalone="no"?><svg xmlns="http://www.w3.org/2000/svg" xmlns:xlink="http://www.w3.org/1999/xlink" contentStyleType="text/css" height="187px" preserveAspectRatio="none" style="width:531px;height:187px;background:#FFFFFF;" version="1.1" viewBox="0 0 531 187" width="531px" zoomAndPan="magnify"><defs/><g><!--class Clinic--><g id="elem_Clinic"><rect codeLine="1" fill="#F1F1F1" height="48" id="Clinic" rx="2.5" ry="2.5" style="stroke:#181818;stroke-width:0.5;" width="71" x="239.5" y="7"/><ellipse cx="254.5" cy="23" fill="#ADD1B2" rx="11" ry="11" style="stroke:#181818;stroke-width:1.0;"/><path d="M256.8438,18.6719 C255.9063,18.2344 255.3125,18.0938 254.4375,18.0938 C251.8125,18.0938 249.8125,20.1719 249.8125,22.8906 L249.8125,24.0156 C249.8125,26.5938 251.9219,28.4844 254.8125,28.4844 C256.0313,28.4844 257.1875,28.1875 257.9375,27.6406 C258.5156,27.2344 258.8438,26.7813 258.8438,26.3906 C258.8438,25.9375 258.4531,25.5469 257.9844,25.5469 C257.7656,25.5469 257.5625,25.625 257.375,25.8125 C256.9219,26.2969 256.9219,26.2969 256.7344,26.3906 C256.3125,26.6563 255.625,26.7813 254.8594,26.7813 C252.8125,26.7813 251.5156,25.6875 251.5156,23.9844 L251.5156,22.8906 C251.5156,21.1094 252.7656,19.7969 254.5,19.7969 C255.0781,19.7969 255.6875,19.9531 256.1563,20.2031 C256.6406,20.4844 256.8125,20.7031 256.9063,21.1094 C256.9688,21.5156 257,21.6406 257.1406,21.7656 C257.2813,21.9063 257.5156,22.0156 257.7344,22.0156 C258,22.0156 258.2656,21.875 258.4375,21.6563 C258.5469,21.5 258.5781,21.3125 258.5781,20.8906 L258.5781,19.4688 C258.5781,19.0313 258.5625,18.9063 258.4688,18.75 C258.3125,18.4844 258.0313,18.3438 257.7344,18.3438 C257.4375,18.3438 257.2344,18.4375 257.0156,18.75 L256.8438,18.6719 Z " fill="#000000"/><text fill="#000000" font-family="sans-serif" font-size="14" lengthAdjust="spacing" textLength="39" x="268.5" y="27.8467">Clinic</text><line style="stroke:#181818;stroke-width:0.5;" x1="240.5" x2="309.5" y1="39" y2="39"/><line style="stroke:#181818;stroke-width:0.5;" x1="240.5" x2="309.5" y1="47" y2="47"/></g><!--class Appointment--><g id="elem_Appointment"><rect codeLine="2" fill="#F1F1F1" height="48" id="Appointment" rx="2.5" ry="2.5" style="stroke:#181818;stroke-width:0.5;" width="130" x="7" y="132"/><ellipse cx="22" cy="148" fill="#ADD1B2" rx="11" ry="11" style="stroke:#181818;stroke-width:1.0;"/><path d="M24.3438,143.6719 C23.4063,143.2344 22.8125,143.0938 21.9375,143.0938 C19.3125,143.0938 17.3125,145.1719 17.3125,147.8906 L17.3125,149.0156 C17.3125,151.5938 19.4219,153.4844 22.3125,153.4844 C23.5313,153.4844 24.6875,153.1875 25.4375,152.6406 C26.0156,152.2344 26.3438,151.7813 26.3438,151.3906 C26.3438,150.9375 25.9531,150.5469 25.4844,150.5469 C25.2656,150.5469 25.0625,150.625 24.875,150.8125 C24.4219,151.2969 24.4219,151.2969 24.2344,151.3906 C23.8125,151.6563 23.125,151.7813 22.3594,151.7813 C20.3125,151.7813 19.0156,150.6875 19.0156,148.9844 L19.0156,147.8906 C19.0156,146.1094 20.2656,144.7969 22,144.7969 C22.5781,144.7969 23.1875,144.9531 23.6563,145.2031 C24.1406,145.4844 24.3125,145.7031 24.4063,146.1094 C24.4688,146.5156 24.5,146.6406 24.6406,146.7656 C24.7813,146.9063 25.0156,147.0156 25.2344,147.0156 C25.5,147.0156 25.7656,146.875 25.9375,146.6563 C26.0469,146.5 26.0781,146.3125 26.0781,145.8906 L26.0781,144.4688 C26.0781,144.0313 26.0625,143.9063 25.9688,143.75 C25.8125,143.4844 25.5313,143.3438 25.2344,143.3438 C24.9375,143.3438 24.7344,143.4375 24.5156,143.75 L24.3438,143.6719 Z " fill="#000000"/><text fill="#000000" font-family="sans-serif" font-size="14" lengthAdjust="spacing" textLength="98" x="36" y="152.8467">Appointment</text><line style="stroke:#181818;stroke-width:0.5;" x1="8" x2="136" y1="164" y2="164"/><line style="stroke:#181818;stroke-width:0.5;" x1="8" x2="136" y1="172" y2="172"/></g><!--class Dentist--><g id="elem_Dentist"><rect codeLine="3" fill="#F1F1F1" height="48" id="Dentist" rx="2.5" ry="2.5" style="stroke:#181818;stroke-width:0.5;" width="86" x="172" y="132"/><ellipse cx="187" cy="148" fill="#ADD1B2" rx="11" ry="11" style="stroke:#181818;stroke-width:1.0;"/><path d="M189.3438,143.6719 C188.4063,143.2344 187.8125,143.0938 186.9375,143.0938 C184.3125,143.0938 182.3125,145.1719 182.3125,147.8906 L182.3125,149.0156 C182.3125,151.5938 184.4219,153.4844 187.3125,153.4844 C188.5313,153.4844 189.6875,153.1875 190.4375,152.6406 C191.0156,152.2344 191.3438,151.7813 191.3438,151.3906 C191.3438,150.9375 190.9531,150.5469 190.4844,150.5469 C190.2656,150.5469 190.0625,150.625 189.875,150.8125 C189.4219,151.2969 189.4219,151.2969 189.2344,151.3906 C188.8125,151.6563 188.125,151.7813 187.3594,151.7813 C185.3125,151.7813 184.0156,150.6875 184.0156,148.9844 L184.0156,147.8906 C184.0156,146.1094 185.2656,144.7969 187,144.7969 C187.5781,144.7969 188.1875,144.9531 188.6563,145.2031 C189.1406,145.4844 189.3125,145.7031 189.4063,146.1094 C189.4688,146.5156 189.5,146.6406 189.6406,146.7656 C189.7813,146.9063 190.0156,147.0156 190.2344,147.0156 C190.5,147.0156 190.7656,146.875 190.9375,146.6563 C191.0469,146.5 191.0781,146.3125 191.0781,145.8906 L191.0781,144.4688 C191.0781,144.0313 191.0625,143.9063 190.9688,143.75 C190.8125,143.4844 190.5313,143.3438 190.2344,143.3438 C189.9375,143.3438 189.7344,143.4375 189.5156,143.75 L189.3438,143.6719 Z " fill="#000000"/><text fill="#000000" font-family="sans-serif" font-size="14" lengthAdjust="spacing" textLength="54" x="201" y="152.8467">Dentist</text><line style="stroke:#181818;stroke-width:0.5;" x1="173" x2="257" y1="164" y2="164"/><line style="stroke:#181818;stroke-width:0.5;" x1="173" x2="257" y1="172" y2="172"/></g><!--class Patient--><g id="elem_Patient"><rect codeLine="4" fill="#F1F1F1" height="48" id="Patient" rx="2.5" ry="2.5" style="stroke:#181818;stroke-width:0.5;" width="85" x="293.5" y="132"/><ellipse cx="308.5" cy="148" fill="#ADD1B2" rx="11" ry="11" style="stroke:#181818;stroke-width:1.0;"/><path d="M310.8438,143.6719 C309.9063,143.2344 309.3125,143.0938 308.4375,143.0938 C305.8125,143.0938 303.8125,145.1719 303.8125,147.8906 L303.8125,149.0156 C303.8125,151.5938 305.9219,153.4844 308.8125,153.4844 C310.0313,153.4844 311.1875,153.1875 311.9375,152.6406 C312.5156,152.2344 312.8438,151.7813 312.8438,151.3906 C312.8438,150.9375 312.4531,150.5469 311.9844,150.5469 C311.7656,150.5469 311.5625,150.625 311.375,150.8125 C310.9219,151.2969 310.9219,151.2969 310.7344,151.3906 C310.3125,151.6563 309.625,151.7813 308.8594,151.7813 C306.8125,151.7813 305.5156,150.6875 305.5156,148.9844 L305.5156,147.8906 C305.5156,146.1094 306.7656,144.7969 308.5,144.7969 C309.0781,144.7969 309.6875,144.9531 310.1563,145.2031 C310.6406,145.4844 310.8125,145.7031 310.9063,146.1094 C310.9688,146.5156 311,146.6406 311.1406,146.7656 C311.2813,146.9063 311.5156,147.0156 311.7344,147.0156 C312,147.0156 312.2656,146.875 312.4375,146.6563 C312.5469,146.5 312.5781,146.3125 312.5781,145.8906 L312.5781,144.4688 C312.5781,144.0313 312.5625,143.9063 312.4688,143.75 C312.3125,143.4844 312.0313,143.3438 311.7344,143.3438 C311.4375,143.3438 311.2344,143.4375 311.0156,143.75 L310.8438,143.6719 Z " fill="#000000"/><text fill="#000000" font-family="sans-serif" font-size="14" lengthAdjust="spacing" textLength="53" x="322.5" y="152.8467">Patient</text><line style="stroke:#181818;stroke-width:0.5;" x1="294.5" x2="377.5" y1="164" y2="164"/><line style="stroke:#181818;stroke-width:0.5;" x1="294.5" x2="377.5" y1="172" y2="172"/></g><!--class Treatment--><g id="elem_Treatment"><rect codeLine="5" fill="#F1F1F1" height="48" id="Treatment" rx="2.5" ry="2.5" style="stroke:#181818;stroke-width:0.5;" width="110" x="414" y="132"/><ellipse cx="429" cy="148" fill="#ADD1B2" rx="11" ry="11" style="stroke:#181818;stroke-width:1.0;"/><path d="M431.3438,143.6719 C430.4063,143.2344 429.8125,143.0938 428.9375,143.0938 C426.3125,143.0938 424.3125,145.1719 424.3125,147.8906 L424.3125,149.0156 C424.3125,151.5938 426.4219,153.4844 429.3125,153.4844 C430.5313,153.4844 431.6875,153.1875 432.4375,152.6406 C433.0156,152.2344 433.3438,151.7813 433.3438,151.3906 C433.3438,150.9375 432.9531,150.5469 432.4844,150.5469 C432.2656,150.5469 432.0625,150.625 431.875,150.8125 C431.4219,151.2969 431.4219,151.2969 431.2344,151.3906 C430.8125,151.6563 430.125,151.7813 429.3594,151.7813 C427.3125,151.7813 426.0156,150.6875 426.0156,148.9844 L426.0156,147.8906 C426.0156,146.1094 427.2656,144.7969 429,144.7969 C429.5781,144.7969 430.1875,144.9531 430.6563,145.2031 C431.1406,145.4844 431.3125,145.7031 431.4063,146.1094 C431.4688,146.5156 431.5,146.6406 431.6406,146.7656 C431.7813,146.9063 432.0156,147.0156 432.2344,147.0156 C432.5,147.0156 432.7656,146.875 432.9375,146.6563 C433.0469,146.5 433.0781,146.3125 433.0781,145.8906 L433.0781,144.4688 C433.0781,144.0313 433.0625,143.9063 432.9688,143.75 C432.8125,143.4844 432.5313,143.3438 432.2344,143.3438 C431.9375,143.3438 431.7344,143.4375 431.5156,143.75 L431.3438,143.6719 Z " fill="#000000"/><text fill="#000000" font-family="sans-serif" font-size="14" lengthAdjust="spacing" textLength="78" x="443" y="152.8467">Treatment</text><line style="stroke:#181818;stroke-width:0.5;" x1="415" x2="523" y1="164" y2="164"/><line style="stroke:#181818;stroke-width:0.5;" x1="415" x2="523" y1="172" y2="172"/></g><!--reverse link Clinic to Appointment--><g id="link_Clinic_Appointment"><path codeLine="7" d="M228.048,60.449 C192.274,82.1245 143.64,111.5924 110.226,131.8387 " fill="none" id="Clinic-backto-Appointment" style="stroke:#181818;stroke-width:1.0;"/><polygon fill="#181818" points="239.175,53.707,231.9706,53.3954,228.9121,59.9257,236.1164,60.2373,239.175,53.707" style="stroke:#181818;stroke-width:1.0;"/><polygon fill="#000000" points="186.7237,96.1574,195.9826,93.9837,192.9366,88.9567,186.7237,96.1574" style="stroke:#000000;stroke-width:1.0;"/><text fill="#000000" font-family="sans-serif" font-size="13" lengthAdjust="spacing" textLength="23" x="200" y="98.0669">has</text><text fill="#000000" font-family="sans-serif" font-size="13" lengthAdjust="spacing" textLength="8" x="223.5834" y="53.6854">1</text><text fill="#000000" font-family="sans-serif" font-size="13" lengthAdjust="spacing" textLength="7" x="112.124" y="120.8094">*</text></g><!--reverse link Clinic to Dentist--><g id="link_Clinic_Dentist"><path codeLine="8" d="M257.91,67.035 C247.749,87.8652 235.146,113.7002 226.235,131.9684 " fill="none" id="Clinic-backto-Dentist" style="stroke:#181818;stroke-width:1.0;"/><polygon fill="#181818" points="263.714,55.135,257.4887,58.7744,258.4537,65.9206,264.6791,62.2812,263.714,55.135" style="stroke:#181818;stroke-width:1.0;"/><polygon fill="#000000" points="251.8079,98.0602,258.4149,91.2193,253.1321,88.6423,251.8079,98.0602" style="stroke:#000000;stroke-width:1.0;"/><text fill="#000000" font-family="sans-serif" font-size="13" lengthAdjust="spacing" textLength="23" x="263" y="98.0669">has</text><text fill="#000000" font-family="sans-serif" font-size="13" lengthAdjust="spacing" textLength="8" x="251.988" y="74.9291">1</text><text fill="#000000" font-family="sans-serif" font-size="13" lengthAdjust="spacing" textLength="7" x="221.2171" y="120.9723">*</text></g><!--reverse link Clinic to Patient--><g id="link_Clinic_Patient"><path codeLine="9" d="M292.375,67.035 C302.706,87.8652 315.518,113.7002 324.578,131.9684 " fill="none" id="Clinic-backto-Patient" style="stroke:#181818;stroke-width:1.0;"/><polygon fill="#181818" points="286.474,55.135,285.556,62.2874,291.8052,65.8857,292.7232,58.7333,286.474,55.135" style="stroke:#181818;stroke-width:1.0;"/><polygon fill="#000000" points="317.2215,98.0458,315.8357,88.6367,310.5698,91.2483,317.2215,98.0458" style="stroke:#000000;stroke-width:1.0;"/><text fill="#000000" font-family="sans-serif" font-size="13" lengthAdjust="spacing" textLength="23" x="324" y="98.0669">has</text><text fill="#000000" font-family="sans-serif" font-size="13" lengthAdjust="spacing" textLength="8" x="280.2958" y="74.9291">1</text><text fill="#000000" font-family="sans-serif" font-size="13" lengthAdjust="spacing" textLength="7" x="313.7542" y="120.9723">*</text></g><!--reverse link Clinic to Treatment--><g id="link_Clinic_Treatment"><path codeLine="10" d="M321.661,61.584 C355.734,83.1872 401.271,112.0581 432.656,131.9571 " fill="none" id="Clinic-backto-Treatment" style="stroke:#181818;stroke-width:1.0;"/><polygon fill="#181818" points="310.583,54.56,313.5085,61.151,320.7177,60.9855,317.7922,54.3945,310.583,54.56" style="stroke:#181818;stroke-width:1.0;"/><polygon fill="#000000" points="393.2228,96.2437,387.1574,88.9183,384.01,93.8825,393.2228,96.2437" style="stroke:#000000;stroke-width:1.0;"/><text fill="#000000" font-family="sans-serif" font-size="13" lengthAdjust="spacing" textLength="23" x="398" y="98.0669">has</text><text fill="#000000" font-family="sans-serif" font-size="13" lengthAdjust="spacing" textLength="8" x="311.0709" y="74.9921">1</text><text fill="#000000" font-family="sans-serif" font-size="13" lengthAdjust="spacing" textLength="7" x="415.446" y="120.9581">*</text></g><!--SRC=[Iyv9B2vMSCx9pCjCLk1A1lCS2mhoC_DASbFpIc12Ba1sPZ6S6v1OaWaKWV92Yb8JmQgvkA06AHagAMZfwYeeQIcXc6Qba95Oh627JHdC1ZnAeBRYKm9t2amH0000]--></g></svg>